<?xml version="1.0" encoding="UTF-8" standalone="no"?>
<!-- Created with Inkscape (http://www.inkscape.org/) -->

<svg
   width="71.999992mm"
   height="72mm"
   viewBox="0 0 71.999992 72"
   version="1.1"
   id="svg1"
   xml:space="preserve"
   inkscape:version="1.4 (e7c3feb1, 2024-10-09)"
   sodipodi:docname="wips.svg"
   xmlns:inkscape="http://www.inkscape.org/namespaces/inkscape"
   xmlns:sodipodi="http://sodipodi.sourceforge.net/DTD/sodipodi-0.dtd"
   xmlns="http://www.w3.org/2000/svg"
   xmlns:svg="http://www.w3.org/2000/svg"><sodipodi:namedview
     id="namedview1"
     pagecolor="#ffffff"
     bordercolor="#000000"
     borderopacity="0.25"
     inkscape:showpageshadow="2"
     inkscape:pageopacity="0.0"
     inkscape:pagecheckerboard="0"
     inkscape:deskcolor="#d1d1d1"
     inkscape:document-units="mm"
     inkscape:export-bgcolor="#ffffff00"
     inkscape:zoom="0.033995227"
     inkscape:cx="-1044.2643"
     inkscape:cy="5103.6577"
     inkscape:window-width="1312"
     inkscape:window-height="778"
     inkscape:window-x="0"
     inkscape:window-y="38"
     inkscape:window-maximized="0"
     inkscape:current-layer="layer1"
     showguides="false"><inkscape:page
       x="0"
       y="0"
       width="71.999992"
       height="72"
       id="page2"
       margin="0"
       bleed="0" /></sodipodi:namedview><defs
     id="defs1" /><g
     inkscape:label="Layer 1"
     inkscape:groupmode="layer"
     id="layer1"
     transform="translate(-658.20805,-704.76591)"><circle
       style="fill:#ffffff;stroke-width:0.2;stroke-linecap:round;stroke-opacity:0;paint-order:stroke fill markers"
       id="path4"
       cx="419.37143"
       cy="-924.54669"
       r="36"
       transform="rotate(112.45942)" /><path
       d="m 684.48123,771.0417 c -0.4965,-0.53671 0.26288,-1.67912 3.18743,-4.7952 2.20477,-2.34914 3.58408,-3.23791 4.94301,-3.18505 0.55255,0.0215 1.00129,0.12833 0.99723,0.23739 -0.004,0.10906 0.27644,0.55554 0.62336,0.99217 0.34691,0.43664 0.6217,1.02638 0.61064,1.31053 -0.0598,1.53583 -6.90355,5.75121 -9.19268,5.66215 -0.54977,-0.0214 -1.07582,-0.12131 -1.16899,-0.22199 z m 4.08275,-1.45193 c 2.10025,-1.0316 5.1301,-3.1198 5.38348,-3.71035 0.0914,-0.21304 -0.0989,-0.81545 -0.42298,-1.3387 -0.68796,-1.1109 -1.27347,-1.11315 -2.9009,-0.0112 -1.02915,0.69687 -4.66135,4.45387 -5.20904,5.38802 -0.2814,0.47997 -0.23544,0.53343 0.48261,0.56137 0.43649,0.017 1.63657,-0.38315 2.66683,-0.88918 z m -13.92477,-4.48641 c -0.65034,-0.65185 -0.70609,-0.85154 -0.52441,-1.87845 0.11175,-0.63199 0.39634,-1.4893 0.63231,-1.90514 0.58718,-1.03479 3.39649,-2.97747 5.25605,-3.63463 0.84284,-0.29787 1.98825,-0.74174 2.54535,-0.98639 1.29125,-0.56705 1.62537,-0.2628 1.1628,1.05884 -0.2659,0.75975 -0.27094,1.11677 -0.023,1.62689 0.17475,0.35945 0.23256,0.94447 0.12847,1.30004 -0.2524,0.86217 -2.99734,3.15468 -3.9903,3.33263 -0.43431,0.0779 -1.0712,0.34376 -1.41532,0.59098 -0.82924,0.59572 -2.26573,1.2549 -2.698,1.23808 -0.19046,-0.007 -0.67377,-0.34169 -1.07401,-0.74285 z m 2.64013,-0.64644 c 0.59546,-0.33279 1.68871,-0.86915 2.42942,-1.19193 2.33126,-1.01591 3.8416,-2.77114 3.15523,-3.66685 -0.17847,-0.23292 -0.28319,-0.78133 -0.23269,-1.21872 0.0771,-0.66799 0.0155,-0.76762 -0.38484,-0.62255 -0.26216,0.095 -1.01913,0.33458 -1.68217,0.53245 -1.2294,0.36686 -4.07745,2.07894 -4.94663,2.97361 -0.26471,0.27247 -0.58233,1.0665 -0.7058,1.76451 -0.18702,1.0571 -0.14529,1.33195 0.25002,1.64528 0.64183,0.50876 0.86087,0.48644 2.11746,-0.2158 z m 17.86255,-2.00312 c -0.32433,-0.35059 -0.116,-1.47199 0.39944,-2.15011 0.28537,-0.37546 0.74792,-1.2993 1.02788,-2.05296 0.54766,-1.4743 0.77149,-1.57508 2.11359,-0.95173 1.34321,0.62387 1.62312,1.1536 1.04122,1.97055 -1.54014,2.16225 -3.96725,3.84891 -4.58213,3.18425 z m 2.1758,-1.56307 c 0.58758,-0.54359 1.25349,-1.30415 1.47981,-1.69014 0.37483,-0.63933 0.3677,-0.7365 -0.0802,-1.09149 -0.85372,-0.67673 -1.36936,-0.5117 -1.60319,0.51308 -0.11764,0.51574 -0.45914,1.30673 -0.75881,1.75777 -1.119,1.68417 -0.60243,1.95835 0.96234,0.51078 z m -10.34272,-5.20735 c -0.56575,-0.36031 -0.79459,-1.70049 -0.40409,-2.36654 0.30748,-0.52444 2.96224,-3.08476 3.18938,-3.07593 0.0657,0.003 0.1112,0.22056 0.10094,0.48445 -0.0112,0.28804 0.34431,0.67056 0.8895,0.95707 0.76933,0.40429 0.90295,0.61183 0.87394,1.35742 -0.0402,1.03356 -1.00455,2.01584 -2.54145,2.58874 -1.14869,0.42818 -1.50729,0.4375 -2.10822,0.0548 z m 2.10057,-0.86992 c 0.98957,-0.42326 1.7342,-1.21818 1.75705,-1.87571 0.008,-0.22216 -0.35769,-0.63514 -0.81202,-0.91774 l -0.82607,-0.51383 -1.04783,1.08162 c -1.05961,1.09377 -1.19024,1.39827 -0.92932,2.16624 0.18365,0.54051 0.6952,0.55687 1.85819,0.0594 z m 9.99041,0.92574 c -0.71363,-0.37324 -1.46436,-0.68663 -1.66829,-0.69643 -0.31782,-0.0154 -4.28785,-4.1688 -5.71911,-5.98344 -0.45096,-0.57174 -1.24817,-3.67951 -1.4583,-5.68489 -0.17675,-1.68681 -1.28867,-2.41402 -2.22605,-1.45587 -0.50048,0.51155 -0.67243,2.00977 -0.26236,2.2858 0.4316,0.29052 0.26658,0.85483 -0.4945,1.69105 -0.85156,0.93562 -1.77873,1.39984 -3.09651,1.55038 -1.50037,0.17138 -1.68852,-0.11003 -1.63245,-2.44157 0.0273,-1.13316 -0.0306,-2.27091 -0.12847,-2.52834 -0.11426,-0.30042 -0.0484,-0.50041 0.18395,-0.55838 0.19909,-0.0497 0.84299,-0.20369 1.4309,-0.34227 1.56111,-0.368 3.09046,-1.67583 3.42162,-2.92601 0.23329,-0.88077 0.16287,-1.31736 -0.48347,-2.99763 -0.70183,-1.8245 -1.15049,-2.44698 -1.19114,-1.65262 -0.0405,0.78383 -0.67226,1.05156 -3.66132,1.55057 -4.97428,0.83043 -5.24687,0.83583 -6.13828,0.12156 -0.73678,-0.59037 -0.87857,-0.61029 -2.94433,-0.41369 -2.40845,0.22924 -3.20314,-1.1e-4 -4.52727,-1.30656 -0.839,-0.8278 -0.88809,-2.01547 -0.11019,-2.66628 0.94017,-0.78658 10.15632,-1.7028 12.99041,-1.29144 0.79716,0.11568 1.70971,-0.016 3.06222,-0.44214 1.05966,-0.33384 2.94464,-0.74049 4.18885,-0.90369 1.24421,-0.1632 2.58934,-0.40819 2.98917,-0.54444 0.63664,-0.21693 0.79138,-0.15893 1.24531,0.46676 0.28509,0.39297 0.56469,0.96503 0.62132,1.27123 0.0566,0.30621 0.20635,1.15373 0.33271,1.88339 0.23241,1.34195 2.02463,5.24826 2.41488,5.26344 0.25424,0.01 -0.0394,-2.18632 -0.38819,-2.90386 -0.29368,-0.6041 -0.59001,-5.55015 -0.36672,-6.1212 0.38477,-0.98407 1.5712,-1.77185 3.24753,-2.15635 1.35147,-0.30998 1.8405,-0.32619 2.21238,-0.0733 0.54057,0.36754 0.85998,0.0825 0.63837,-0.56978 -0.10163,-0.29912 0.3365,-0.88365 1.3993,-1.86685 l 1.54724,-1.43136 -0.83443,-0.76404 c -1.0058,-0.92094 -4.27879,-2.79211 -4.92496,-2.8156 -0.47452,-0.0175 -0.61834,-0.67398 -0.19947,-0.91086 0.12848,-0.0727 0.40876,-0.6754 0.62284,-1.33942 0.21408,-0.66402 0.57021,-1.2688 0.7914,-1.34395 0.68371,-0.2323 2.68273,0.53942 5.58219,2.15501 1.96227,1.09339 3.08335,1.56002 3.81647,1.58854 0.76276,0.0297 1.36924,0.29758 2.28695,1.01027 0.68689,0.53344 1.94612,1.42451 2.79829,1.98015 1.85707,1.21086 3.25749,2.77575 4.56422,5.10023 0.5325,0.94723 1.26635,2.04766 1.63078,2.4454 0.8625,0.94135 1.23373,2.44681 1.11953,4.54016 -0.10954,2.00801 -0.29756,2.63108 -1.0336,3.42516 -0.30402,0.328 -1.02264,1.25529 -1.59695,2.06065 -0.5743,0.80536 -1.63373,2.00373 -2.35426,2.66304 -0.72055,0.65931 -1.62463,1.627 -2.00907,2.15041 -1.25271,1.70555 -3.60477,4.29201 -4.03642,4.43866 -0.23193,0.0788 -0.92659,0.12362 -1.54369,0.0996 -1.29257,-0.0503 -2.30056,0.71351 -2.348,1.7792 -0.0407,0.91821 -0.35399,1.82265 -0.62733,1.81202 -0.31846,-0.0124 -0.22297,-1.87125 0.14391,-2.80132 0.38694,-0.98091 1.66224,-1.62974 3.09384,-1.57404 1.09324,0.0425 1.20312,-0.0292 2.76267,-1.80203 0.8933,-1.01548 1.85723,-2.19072 2.14209,-2.61164 0.28486,-0.42092 1.23411,-1.41763 2.10946,-2.2149 0.87534,-0.79726 1.94454,-2.01534 2.37599,-2.70684 0.43145,-0.6915 0.93111,-1.43029 1.11035,-1.64177 0.17925,-0.21147 0.50483,-1.22748 0.72352,-2.25781 0.47443,-2.23517 0.24223,-3.68205 -0.82761,-5.15607 -0.38238,-0.52684 -1.1093,-1.66734 -1.61539,-2.53444 -1.02065,-1.74874 -3.22268,-4.17764 -4.05898,-4.47716 -0.29729,-0.10643 -1.20936,-0.75002 -2.02682,-1.4301 -1.53046,-1.27326 -3.01802,-1.93696 -3.76923,-1.68173 -0.41112,0.13968 -3.13056,-1.25419 -3.97006,-2.03488 -0.46073,-0.42847 -3.22763,-1.54645 -3.89119,-1.57227 -0.28491,-0.0111 -0.58564,0.35882 -0.8357,1.02794 -0.21487,0.57489 -0.34339,1.0914 -0.28563,1.14779 0.0578,0.0564 0.80598,0.46119 1.66272,0.89953 0.85673,0.43834 1.98642,1.15915 2.51043,1.60179 0.52399,0.44266 1.37047,0.8894 1.88104,0.99277 1.11718,0.22618 1.15272,0.44449 0.16747,1.02861 -1.37097,0.81282 -3.35603,2.89025 -3.38125,3.53862 -0.0368,0.94705 -0.7071,1.3453 -1.41027,0.83795 -0.47677,-0.34401 -0.74697,-0.36303 -1.68941,-0.11887 -0.61703,0.15983 -1.49841,0.4671 -1.95862,0.68284 l -0.83675,0.39226 -0.0884,2.57139 c -0.0595,1.73553 0.0375,2.92059 0.29885,3.6456 0.213,0.59081 0.36969,1.78843 0.34821,2.66138 -0.0353,1.43457 -0.0944,1.59289 -0.61481,1.64648 -0.4782,0.0492 -0.77158,-0.33576 -1.73134,-2.27199 -1.069,-2.15662 -1.33452,-2.93771 -1.73153,-5.09358 -0.34035,-1.8483 -0.40585,-1.87821 -3.20092,-1.4618 -1.37256,0.20448 -3.51983,0.6664 -4.77171,1.02648 -2.23072,0.64163 -2.91041,0.68231 -8.49285,0.50825 -1.24066,-0.0382 -7.04611,0.77889 -7.38821,1.04047 -0.68839,0.52634 -0.42143,1.42318 0.6538,2.19648 1.01759,0.73183 1.08798,0.74418 3.11594,0.54647 2.16255,-0.21084 2.64072,-0.11903 3.70837,0.71206 0.62219,0.48432 0.73233,0.48332 3.48417,-0.0317 1.56293,-0.29247 3.3768,-0.53865 4.03081,-0.54704 1.16859,-0.015 1.19221,-0.033 1.3676,-1.04131 0.0982,-0.56433 0.2536,-1.09556 0.34544,-1.18051 0.28407,-0.26279 0.87457,0.57147 1.76891,2.4991 1.15229,2.48359 1.12693,4.14736 -0.0839,5.50509 -0.45994,0.51574 -1.48499,1.22443 -2.27793,1.57485 -1.36871,0.60489 -1.45246,0.69815 -1.65499,1.84289 -0.11737,0.66315 -0.22886,1.60554 -0.24787,2.09418 -0.0299,0.76749 0.054,0.8919 0.61562,0.91375 0.71913,0.028 3.01897,-1.14234 3.23518,-1.64627 0.0755,-0.17605 -0.004,-0.9558 -0.17659,-1.73278 -0.30149,-1.3567 -0.29026,-1.43044 0.28328,-1.86122 1.24044,-0.93168 2.04183,-1.19992 2.55084,-0.85382 0.59496,0.40453 1.45985,1.81039 1.34306,2.18311 -0.0986,0.31451 0.51172,3.72442 0.85403,4.77187 0.12352,0.378 1.40411,1.98733 2.84573,3.57629 3.90133,4.30001 5.76676,4.86052 8.46803,2.54441 1.10631,-0.94857 2.77674,-1.71993 2.7594,-1.27422 -0.0147,0.37893 -2.88995,2.47999 -4.6408,3.39127 l -0.9382,0.48832 z m -30.78528,-3.29489 c -0.79188,-0.48522 -0.83494,-0.73548 -0.34759,-2.02011 0.30413,-0.80168 0.89521,-1.42384 3.42985,-3.6102 0.4425,-0.3817 1.08249,-0.96449 1.42219,-1.29508 0.37288,-0.36288 1.33263,-0.75827 2.42187,-0.99774 0.99233,-0.21818 2.32043,-0.54184 2.95136,-0.71924 1.56369,-0.4397 2.71856,-0.35919 3.12207,0.21763 0.40207,0.57475 0.3796,2.46891 -0.0392,3.30066 -0.42422,0.84264 -1.83032,1.64102 -3.17672,1.80375 -0.78717,0.0951 -1.39295,0.38695 -1.95509,0.94177 -0.44797,0.44216 -0.81821,0.88502 -0.82275,0.98415 -0.0209,0.46045 -1.88941,1.33723 -3.09334,1.45165 -0.73602,0.0699 -1.75746,0.18374 -2.26986,0.25286 -0.61199,0.0826 -1.17564,-0.0238 -1.64283,-0.31011 z m 3.94566,-0.50249 c 0.72753,0.0283 1.1901,-0.26088 2.79107,-1.7449 1.40233,-1.29989 2.1059,-1.77156 2.61315,-1.75182 0.9008,0.035 2.13788,-0.55245 2.68836,-1.27674 0.53764,-0.70737 0.61402,-2.0342 0.15623,-2.71422 -0.33405,-0.49625 -0.3829,-0.49669 -1.91901,-0.0171 -0.86693,0.27062 -2.29041,0.66375 -3.16327,0.87361 -1.60046,0.38477 -1.74852,0.48916 -5.61976,3.96209 -1.19929,1.07589 -1.66665,2.16038 -1.10773,2.57041 0.19616,0.1439 0.88139,0.21735 1.52276,0.16322 0.64136,-0.0541 1.55854,-0.0832 2.03818,-0.0645 z m 30.11725,-2.18185 c -1.3928,-1.01783 -4.3764,-4.09673 -5.18163,-5.34713 -0.51723,-0.8032 -0.47113,-2.46667 0.0801,-2.88904 0.73714,-0.56485 2.24998,0.42868 3.05918,2.00906 0.47377,0.92531 1.09828,1.62653 1.96737,2.20903 0.75,0.5027 1.41372,1.20116 1.61507,1.69962 0.18799,0.46542 0.54232,1.18296 0.78737,1.59455 0.34272,0.57559 0.37459,0.85186 0.13809,1.19689 -0.49189,0.71763 -0.95891,0.62804 -2.46552,-0.47298 z m 1.54652,-0.22757 c -1.06807,-2.47085 -1.41393,-2.94117 -2.75487,-3.74609 -0.37674,-0.22615 -1.01587,-0.99329 -1.4203,-1.70476 -0.40443,-0.71147 -1.118,-1.53462 -1.58572,-1.82922 l -0.8504,-0.53566 0.11882,0.96912 c 0.15118,1.23311 2.19346,3.81966 4.47129,5.66291 1.56634,1.26748 2.22384,1.65256 2.02118,1.1837 z m -12.78173,-31.23348 c -1.83147,-1.26876 -4.12188,-3.68728 -4.59905,-4.8563 -0.48796,-1.19547 -0.52459,-2.67611 -0.0914,-3.69449 0.2604,-0.6121 0.41392,-0.66309 1.83076,-0.60797 1.92948,0.0751 5.19861,1.26162 8.26246,2.99892 1.06514,0.60398 1.37368,0.94828 1.65339,1.84509 0.3356,1.07604 0.32593,1.11987 -0.40189,1.82271 -0.41017,0.39608 -0.75129,0.86235 -0.75806,1.03616 -0.007,0.1738 -0.10067,0.29051 -0.20868,0.25932 -0.10801,-0.0311 -0.74118,0.42081 -1.40704,1.0044 -1.50939,1.32289 -2.57898,1.3709 -4.28051,0.19216 z m 2.72812,0.0255 c 0.63289,-0.30768 1.14423,-0.67047 1.64609,-1.1679 2.37658,-2.35555 2.52871,-2.70209 1.584,-3.60805 -1.65,-1.58231 -7.52337,-3.90969 -9.18429,-3.63937 -0.74384,0.12107 -0.81725,0.22787 -0.93517,1.36072 -0.0764,0.73314 0.0203,1.53458 0.2394,1.98559 0.67709,1.39387 4.3312,4.89143 5.36902,5.139 0.29936,0.0714 0.58123,0.1475 0.62637,0.1691 0.0451,0.0216 0.3397,-0.086 0.65458,-0.23909 z"
       style="fill:#000000"
       id="path1-9"
       sodipodi:nodetypes="ssssssssssssssssssssssssssssssssssssssssssssssssssssssssssssscsssssssssssssssssscssssssssssssssssssscscsssssssssssssssssssssssssssssssssssssssssssccssssssscsssssssssssssssssssssssscssssssssssssssssssssssssssssssssssssssssscsssssssssssssssssssssss"
       inkscape:export-filename="fav.png"
       inkscape:export-xdpi="96"
       inkscape:export-ydpi="96" /></g></svg>
