<?xml version="1.0" encoding="UTF-8" standalone="no"?>
<!-- Created with Inkscape (http://www.inkscape.org/) -->

<svg
   width="75.776985mm"
   height="38.879379mm"
   viewBox="0 0 75.776985 38.879379"
   version="1.1"
   id="svg1"
   xml:space="preserve"
   xmlns:inkscape="http://www.inkscape.org/namespaces/inkscape"
   xmlns:sodipodi="http://sodipodi.sourceforge.net/DTD/sodipodi-0.dtd"
   xmlns="http://www.w3.org/2000/svg"
   xmlns:svg="http://www.w3.org/2000/svg"><sodipodi:namedview
     id="namedview1"
     pagecolor="#ffffff"
     bordercolor="#000000"
     borderopacity="0.25"
     inkscape:showpageshadow="2"
     inkscape:pageopacity="0.0"
     inkscape:pagecheckerboard="0"
     inkscape:deskcolor="#d1d1d1"
     inkscape:document-units="mm"
     inkscape:export-bgcolor="#ffffff00"><inkscape:page
       x="0"
       y="0"
       width="75.776985"
       height="38.879379"
       id="page2"
       margin="0"
       bleed="0" /></sodipodi:namedview><defs
     id="defs1" /><g
     inkscape:label="Layer 1"
     inkscape:groupmode="layer"
     id="layer1"
     transform="translate(-27.646567,-205.88867)"><path
       d="m 36.858172,244.49034 c -0.0823,-0.2146 -0.0736,-1.03774 0.0194,-1.82919 0.093,-0.79146 0.12295,-1.43901 0.0665,-1.43901 -0.0565,0 -0.7421,0.29141 -1.52366,0.64757 -0.78157,0.35616 -2.19089,0.77041 -3.13181,0.92054 -1.45834,0.23269 -1.84841,0.20546 -2.64351,-0.18455 -1.20563,-0.59139 -2.18689,-2.27089 -1.96773,-3.36794 0.45222,-2.26362 3.76567,-8.45597 5.63545,-10.53183 0.49879,-0.55375 1.3987,-1.29505 1.9998,-1.64732 2.06829,-1.2121 5.23184,-0.82051 5.6286,0.69672 0.21031,0.80422 0.56178,0.58984 1.19667,-0.72991 0.70361,-1.46261 1.18886,-1.81845 2.15062,-1.57707 0.97514,0.24475 1.13081,0.83574 0.5958,2.26199 -0.9023,2.40543 -2.42667,7.60948 -2.82747,9.65271 -0.28925,1.47459 -1.98007,6.15611 -2.4534,6.79294 -0.44156,0.5941 -2.54717,0.85054 -2.74525,0.33435 z m 1.98472,-1.75123 c 0.35305,-0.42539 1.71028,-4.44407 1.55376,-4.60058 -0.18637,-0.18638 -1.94942,3.16518 -2.1533,4.09341 -0.19108,0.86998 0.0965,1.11327 0.59954,0.50717 z m -6.29874,-1.27315 c 2.07866,-0.47559 3.97924,-1.55752 5.57596,-3.17419 1.52606,-1.54514 2.32566,-1.8168 2.38889,-0.81164 0.015,0.2391 0.14283,-0.0415 0.28398,-0.62362 0.58606,-2.41683 1.59605,-6.12595 1.81916,-6.68073 0.32431,-0.8064 -0.12876,-0.77144 -0.85704,0.0662 -0.31632,0.36381 -0.7348,0.66146 -0.92996,0.66146 -0.19516,0 -0.49045,-0.29765 -0.65621,-0.66146 -0.16576,-0.3638 -0.45789,-0.66146 -0.64918,-0.66146 -0.24477,0 -0.3011,-0.23345 -0.19016,-0.78815 0.13584,-0.67917 0.0594,-0.8255 -0.553,-1.05833 -1.13046,-0.4298 -1.73589,-0.32447 -3.0753,0.53503 -1.79758,1.1535 -4.821,5.78093 -6.45306,9.87658 -0.56752,1.42419 -0.51988,1.77805 0.37059,2.75299 0.84441,0.92451 1.12582,0.97909 2.92533,0.56737 z m -0.8267,-3.28482 c -1.02061,-0.55953 -1.04548,-1.15711 -0.1388,-3.33443 0.60058,-1.44225 1.21374,-2.36022 2.32467,-3.4803 0.8299,-0.83675 1.73275,-1.52136 2.00633,-1.52136 0.27358,0 0.62831,-0.13089 0.78828,-0.29086 0.15998,-0.15998 0.54098,-0.21149 0.84667,-0.11446 0.76224,0.24192 0.73003,1.39799 -0.1241,4.45455 -0.74123,2.65251 -1.13355,3.4211 -2.03576,3.9882 -0.92764,0.58309 -2.86125,0.74056 -3.66729,0.29866 z m 3.15994,-1.65536 c 0.47072,-0.40378 1.63551,-3.8203 1.63551,-4.7972 0,-0.47619 -1.04303,-0.1099 -1.85956,0.65303 -0.80665,0.7537 -2.10919,3.24758 -2.10919,4.03832 0,0.47021 0.15552,0.56887 0.89673,0.56887 0.4932,0 1.13963,-0.20835 1.43651,-0.46302 z m 9.09482,7.14966 c -0.48129,-0.0593 -0.94069,-0.27885 -1.02089,-0.48786 -0.18242,-0.47538 0.71776,-3.92424 1.92094,-7.35973 0.50394,-1.43889 1.26335,-4.35592 1.68759,-6.48229 0.42423,-2.12637 0.95531,-4.46144 1.18016,-5.18905 0.22486,-0.7276 0.41012,-1.7198 0.41169,-2.20487 0.002,-0.48508 0.22895,-1.79477 0.50526,-2.91042 0.27632,-1.11565 0.58054,-2.4812 0.67606,-3.03455 0.0955,-0.55335 0.31592,-1.04533 0.48979,-1.09328 0.17387,-0.048 0.79238,-0.22813 1.37447,-0.40039 0.8789,-0.2601 1.2285,-0.24154 2.06203,0.10945 0.55203,0.23246 1.0725,0.60195 1.15659,0.82107 0.0841,0.21913 -0.26929,1.43576 -0.78528,2.70362 -0.55661,1.36766 -1.007,3.00466 -1.10741,4.025 -0.0931,0.94588 -0.26236,2.4937 -0.37618,3.43958 -0.11382,0.94589 -0.17604,1.75907 -0.13828,1.80708 0.0378,0.048 0.38817,-0.12207 0.77869,-0.37795 0.47664,-0.3123 1.25834,-0.47145 2.37809,-0.48416 1.46171,-0.0166 1.81038,0.0832 2.81865,0.80686 1.28353,0.9212 2.08651,2.32466 2.27781,3.98121 0.18714,1.62061 -2.61718,7.3081 -4.53877,9.20514 -1.6914,1.6698 -3.39412,2.52432 -5.02997,2.52432 -1.42978,0 -2.28875,-0.66681 -2.98549,-2.31764 l -0.4177,-0.98965 -0.63983,1.71979 c -0.56983,1.53162 -1.2277,2.46129 -1.65509,2.33891 -0.0813,-0.0233 -0.54164,-0.0909 -1.02293,-0.15019 z m 1.22975,-2.12257 c 0.13255,-0.25466 0.56373,-1.41552 0.95818,-2.57969 0.39445,-1.16417 0.87626,-2.28178 1.0707,-2.48358 0.6604,-0.6854 1.10368,-0.15279 1.25418,1.50691 0.1741,1.92007 0.63378,2.94722 1.54839,3.45987 0.59081,0.33115 0.87168,0.33494 1.98438,0.0268 2.09147,-0.57922 4.17817,-2.89672 5.60104,-6.22057 0.62144,-1.45168 1.12746,-3.03112 1.12448,-3.50986 -0.007,-1.08421 -0.87692,-2.83305 -1.66246,-3.34111 -1.71973,-1.11226 -3.28326,-0.72299 -5.27378,1.31301 -0.77195,0.78959 -1.55237,1.43735 -1.73427,1.43947 -0.39411,0.005 -0.43266,-1.01653 -0.074,-1.95992 0.14121,-0.37142 0.37153,-1.54003 0.51181,-2.59691 0.14027,-1.05688 0.38698,-2.91458 0.54823,-4.12822 0.16124,-1.21364 0.58577,-2.98399 0.9434,-3.93411 0.95665,-2.54157 0.84321,-3.17873 -0.50567,-2.84019 -0.8217,0.20624 -1.07761,0.85715 -1.76252,4.483 -0.30237,1.60073 -0.89357,4.45823 -1.31377,6.35 -0.42021,1.89177 -0.93803,4.33255 -1.15072,5.42396 -0.21268,1.0914 -0.85794,3.35359 -1.4339,5.02708 -0.57595,1.67349 -1.11577,3.48919 -1.1996,4.03489 -0.1591,1.03573 0.15118,1.32588 0.56588,0.52917 z m 5.91594,-2.7649 c -0.9602,-0.9602 0.0837,-4.48158 1.93654,-6.53245 1.57336,-1.74152 2.77304,-1.39949 2.77304,0.79058 0,1.52378 -1.19355,3.94095 -2.5674,5.19948 -0.99055,0.9074 -1.61824,1.06633 -2.14218,0.54239 z m 1.86084,-2.12989 c 0.92385,-1.21535 1.52583,-2.4549 1.52583,-3.14184 v -0.58843 l -0.67518,0.6343 c -0.95889,0.90083 -2.28897,3.95586 -1.72228,3.95586 0.11989,0 0.51213,-0.38695 0.87163,-0.85989 z m 9.10838,5.21894 c -2.10898,-1.46672 -2.87816,-4.95052 -1.79079,-8.111 0.71476,-2.0775 1.17894,-2.89181 2.66916,-4.68248 1.24506,-1.4961 1.44327,-1.62267 3.54481,-2.26368 3.05558,-0.93201 4.12879,-0.89956 5.33712,0.16137 2.25114,1.97653 2.77586,4.90407 1.58108,8.82115 -0.92612,3.03629 -1.73387,4.03124 -4.398,5.41727 -1.84928,0.96211 -2.5069,1.16522 -4.0665,1.25597 -1.68034,0.0978 -1.95888,0.0398 -2.87688,-0.5986 z m 5.95215,-1.48807 c 0.96841,-0.44518 2.14146,-1.20223 2.60679,-1.68232 1.00239,-1.0342 1.83949,-3.33181 2.03959,-5.59807 0.15786,-1.78792 -0.36963,-3.28751 -1.72155,-4.89418 -0.6458,-0.76748 -0.73431,-0.79296 -2.15038,-0.61894 -0.81227,0.0998 -1.67061,0.3544 -1.90743,0.56573 -0.23681,0.21133 -0.77259,0.44528 -1.19062,0.51989 -1.10034,0.19639 -2.55563,1.7435 -3.54414,3.76776 -1.19746,2.45215 -1.27643,2.84335 -0.99714,4.93945 0.26082,1.95748 0.68271,2.65305 2.19372,3.61677 1.01615,0.6481 2.28528,0.48071 4.67116,-0.61609 z m -3.52905,-3.0609 c -0.89039,-0.55233 -1.03209,-1.09026 -0.74764,-2.83802 0.61437,-3.77483 2.6394,-5.69695 4.84171,-4.59566 1.25646,0.6283 1.57732,1.44611 1.35128,3.4441 -0.22027,1.94685 -0.94672,3.07496 -2.47847,3.84877 -1.39536,0.70492 -2.01046,0.73411 -2.96688,0.14081 z m 2.28539,-1.24319 c 1.15316,-0.48182 1.6567,-1.27758 1.87844,-2.96857 0.15792,-1.20422 0.10734,-1.42983 -0.44416,-1.98133 -0.59785,-0.59785 -0.62571,-0.60164 -0.70705,-0.0962 -0.17608,1.09407 -0.30184,1.26601 -0.69025,0.94367 -0.68473,-0.56829 -1.65039,0.80429 -1.75383,2.49287 -0.13316,2.17401 0.0207,2.31829 1.71685,1.6096 z m 14.94686,6.04575 c -0.13748,-0.16538 -0.12035,-0.69581 0.0414,-1.28158 0.15178,-0.54969 0.20416,-1.07123 0.1164,-1.15899 -0.0878,-0.0878 -0.78105,0.0404 -1.54064,0.28474 -2.62294,0.84382 -3.78429,0.64998 -4.03214,-0.673 -0.2064,-1.10171 0.26632,-5.87326 0.81892,-8.2661 0.82371,-3.56684 1.51585,-5.9717 1.76259,-6.12419 0.56064,-0.3465 2.98386,-0.85692 3.17252,-0.66825 0.11177,0.11177 0.013,0.91188 -0.21957,1.77803 -1.17595,4.38028 -1.51994,6.74772 -1.00539,6.91923 0.72069,0.24023 2.03431,-2.30075 3.10487,-6.00586 0.31535,-1.09141 0.66969,-2.13321 0.78742,-2.31511 0.26342,-0.407 3.51441,-0.45494 3.7613,-0.0555 0.25237,0.40835 -0.33845,5.49129 -1.05977,9.11744 -0.34737,1.74625 -0.71001,4.14167 -0.80586,5.32316 -0.0959,1.18149 -0.31617,2.43164 -0.48958,2.77813 -0.28891,0.57723 -0.47696,0.62996 -2.24659,0.62996 -1.06221,0 -2.03685,-0.12697 -2.16586,-0.28215 z m 3.45376,-2.01702 c 0,-0.91294 0.19113,-2.13142 1.07119,-6.82895 0.31352,-1.67349 0.63426,-4.02498 0.71276,-5.22552 l 0.14273,-2.18282 h -0.67003 c -0.69107,0 -1.0424,0.58766 -1.73994,2.91042 -1.20024,3.99667 -2.64667,6.08542 -4.21409,6.08542 -0.35082,0 -0.6719,-0.19712 -0.75419,-0.46302 -0.0788,-0.25466 -0.25367,-0.66977 -0.38857,-0.92245 -0.1349,-0.25269 -0.24527,-0.79405 -0.24527,-1.20302 0,-0.77277 0.98005,-5.53746 1.21829,-5.92294 0.0747,-0.1209 -0.0452,-0.21982 -0.26644,-0.21982 -0.25121,0 -0.51165,0.42229 -0.69351,1.12448 -1.10519,4.26747 -1.3399,5.28191 -1.57631,6.81302 -0.29534,1.91285 -0.34066,3.80909 -0.11143,4.66324 0.13384,0.49872 0.26076,0.53751 1.12401,0.34355 1.65945,-0.37285 2.92207,-1.01217 3.38037,-1.71162 0.53949,-0.82337 1.39209,-1.31518 1.71689,-0.99038 0.13981,0.13981 0.0264,1.04005 -0.27641,2.19326 -0.28246,1.07587 -0.45446,2.05174 -0.38223,2.16862 0.0722,0.11687 0.54102,0.21249 1.04176,0.21249 0.84723,0 0.91042,-0.0586 0.91042,-0.84396 z m 6.49038,1.99155 c -0.57764,-0.20802 -1.12757,-0.50332 -1.22207,-0.65621 -0.0945,-0.15289 0.16831,-1.3678 0.584,-2.69979 0.78035,-2.50047 2.64141,-11.07251 2.70863,-12.47596 l 0.038,-0.79375 -2.05052,0.0935 -2.05052,0.0934 0.0201,-0.8872 c 0.0111,-0.48795 0.17005,-1.30391 0.35329,-1.81323 0.33239,-0.92388 0.33835,-0.92666 2.5523,-1.19063 l 2.21912,-0.26458 0.62001,-2.24896 c 1.77992,-6.45632 2.14583,-8.01357 2.4246,-10.31875 0.16719,-1.38245 0.38879,-2.59843 0.49247,-2.70219 0.25836,-0.25856 3.447048,-0.46486 4.377528,-0.28321 0.70224,0.13709 0.74562,0.21601 0.60656,1.10351 -0.0824,0.52571 -0.45133,1.90835 -0.81989,3.07251 -0.36857,1.16417 -1.07622,3.42636 -1.57257,5.02709 -0.49635,1.60073 -1.092088,3.2676 -1.323868,3.70416 -0.23178,0.43657 -0.42215,1.10729 -0.42305,1.4905 -0.002,0.71472 0.50827,1.01145 1.751908,1.01943 1.01057,0.006 1.17634,0.54939 0.66871,2.19005 -0.25523,0.8249 -0.55673,1.59314 -0.67,1.70721 -0.11327,0.11407 -0.92921,0.32646 -1.813198,0.47198 -0.94728,0.15594 -1.68909,0.42755 -1.80655,0.66146 -0.10961,0.21828 -0.45472,2.48047 -0.76692,5.02708 -0.31219,2.54662 -0.74013,5.4968 -0.95098,6.55596 -0.21084,1.05916 -0.38335,2.3748 -0.38335,2.92365 0,0.54884 -0.14287,1.14077 -0.3175,1.31539 -0.41233,0.41233 -1.91922,0.35551 -3.24629,-0.12241 z m 2.45526,-2.53665 c 0.14779,-0.9095 0.40464,-2.66568 0.57078,-3.9026 0.16614,-1.23693 0.47416,-3.40444 0.68449,-4.81669 0.21034,-1.41225 0.38243,-3.27291 0.38243,-4.13479 0,-0.93799 0.13276,-1.67189 0.33073,-1.82819 0.1819,-0.14362 1.02356,-0.32904 1.87035,-0.41204 1.67031,-0.16372 2.296828,-0.50855 2.296828,-1.26412 0,-0.35448 -0.26666,-0.5291 -0.992178,-0.64967 -0.54571,-0.0907 -1.15212,-0.21568 -1.34759,-0.27774 -0.55463,-0.1761 -0.12631,-2.49081 0.86935,-4.69803 0.47009,-1.04213 1.05893,-2.66868 1.308518,-3.61457 0.2496,-0.94588 0.79735,-2.79135 1.21723,-4.10104 0.41987,-1.30969 0.66803,-2.47818 0.55145,-2.59665 -0.11658,-0.11848 -0.73416,-0.17801 -1.37239,-0.1323 l -1.160428,0.0831 -0.15826,1.5875 c -0.17037,1.70896 -0.9727,5.14507 -1.94607,8.33438 -0.33309,1.09141 -0.75275,2.78403 -0.93256,3.76138 -0.17982,0.97735 -0.50913,1.92821 -0.7318,2.113 -0.26184,0.21732 -0.99922,0.30544 -2.08747,0.24947 -1.36554,-0.0702 -1.71388,-0.005 -1.84852,0.34581 -0.23828,0.62095 -0.12223,0.64847 1.40164,0.33241 2.33871,-0.48507 2.58764,0.26701 1.57381,4.75483 -0.22422,0.99251 -0.6031,2.8583 -0.84197,4.14621 -0.23886,1.28791 -0.72017,3.40986 -1.06957,4.71545 -0.78027,2.91562 -0.7823,3.08731 -0.04,3.38569 1.06578,0.42839 1.19722,0.30502 1.47116,-1.38081 z"
       style="fill:#000000"
       id="path1-7"
       inkscape:export-filename="about.png"
       inkscape:export-xdpi="300"
       inkscape:export-ydpi="300" /></g></svg>
