<?xml version="1.0" encoding="UTF-8" standalone="no"?>
<!-- Created with Inkscape (http://www.inkscape.org/) -->

<svg
   width="147.53358mm"
   height="40.353352mm"
   viewBox="0 0 147.53358 40.353352"
   version="1.1"
   id="svg1"
   xml:space="preserve"
   xmlns:inkscape="http://www.inkscape.org/namespaces/inkscape"
   xmlns:sodipodi="http://sodipodi.sourceforge.net/DTD/sodipodi-0.dtd"
   xmlns="http://www.w3.org/2000/svg"
   xmlns:svg="http://www.w3.org/2000/svg"><sodipodi:namedview
     id="namedview1"
     pagecolor="#ffffff"
     bordercolor="#000000"
     borderopacity="0.25"
     inkscape:showpageshadow="2"
     inkscape:pageopacity="0.0"
     inkscape:pagecheckerboard="0"
     inkscape:deskcolor="#d1d1d1"
     inkscape:document-units="mm"
     inkscape:export-bgcolor="#ffffff00"><inkscape:page
       x="0"
       y="0"
       width="147.53358"
       height="40.353352"
       id="page2"
       margin="0"
       bleed="0" /></sodipodi:namedview><defs
     id="defs1" /><g
     inkscape:label="Layer 1"
     inkscape:groupmode="layer"
     id="layer1"
     transform="translate(-18.968096,-79.758062)"><path
       d="m 25.249859,119.87454 c -0.20391,-0.24571 -0.14267,-1.00097 0.21869,-2.69714 0.27606,-1.29573 0.58166,-3.07024 0.67911,-3.94337 0.19067,-1.7083 0.57695,-3.55443 1.74386,-8.33437 0.40854,-1.67349 0.87302,-4.23334 1.03217,-5.688545 0.31749,-2.90297 0.62736,-4.69384 1.24751,-7.2099 l 0.40758,-1.65365 h 1.6811 c 2.49824,0 2.5395,0.23556 1.17298,6.69666 -0.30193,1.42758 -0.72036,3.511185 -0.92983,4.630215 -0.20948,1.11902 -0.92111,4.11819 -1.58141,6.6648 -0.6603,2.54661 -1.33002,5.7613 -1.48827,7.14375 -0.37764,3.29898 -0.41813,3.49661 -0.82007,4.00314 -0.453,0.57088 -2.97069,0.86162 -3.36342,0.38841 z m 2.60559,-1.54728 c 0.12897,-0.32742 0.41313,-1.96453 0.63146,-3.63802 0.21833,-1.67349 0.6949,-4.11427 1.05906,-5.42396 1.11863,-4.02318 1.50831,-5.72152 1.9123,-8.33437 0.21375,-1.382455 0.61403,-3.525585 0.88951,-4.762505 0.27549,-1.23693 0.57366,-2.75498 0.6626,-3.37344 l 0.16172,-1.12448 h -0.89913 c -0.76929,0 -0.92011,0.10508 -1.04435,0.7276 -0.0799,0.40019 -0.27523,1.32292 -0.43416,2.05052 -0.15892,0.72761 -0.3394,1.68011 -0.40106,2.11667 -0.54845,3.883085 -1.24884,8.080875 -1.45677,8.731255 -0.40468,1.26576 -1.58947,7.5922 -1.59059,8.49333 -5.6e-4,0.45123 -0.11013,1.16561 -0.24348,1.5875 -0.13335,0.4219 -0.30633,1.39217 -0.38441,2.15615 -0.12821,1.25459 -0.0914,1.38906 0.38042,1.38906 0.29585,0 0.62407,-0.25815 0.75688,-0.59531 z m -8.86688,1.03009 c -0.0826,-0.21515 0.0923,-1.26419 0.38857,-2.33121 0.29627,-1.06701 1.02579,-4.38081 1.62116,-7.36398 1.07098,-5.36633 1.5026,-6.53746 2.16518,-5.87487 0.25049,0.25049 0.19011,0.79498 -0.27748,2.5022 -0.3287,1.20012 -0.82448,3.55126 -1.10174,5.22475 -0.27725,1.67349 -0.67654,3.66779 -0.88731,4.43177 -0.21076,0.76399 -0.29099,1.38906 -0.17828,1.38906 0.25609,0 1.16163,-2.70956 1.72428,-5.15937 0.23395,-1.01865 0.65414,-2.74505 0.93375,-3.83646 0.27961,-1.09141 0.57742,-2.74269 0.6618,-3.66952 l 0.15342,-1.68515 -0.93699,0.17578 c -0.74764,0.14026 -0.937,0.0924 -0.937,-0.23697 0,-0.61144 1.57592,-1.46119 2.71198,-1.46232 1.07874,-0.001 1.12307,0.0733 0.72514,1.2163 -0.14688,0.4219 -0.4319,1.66006 -0.63339,2.75146 -0.20149,1.09141 -0.56639,2.81782 -0.81089,3.83646 -2.40406,10.01581 -2.50256,10.26053 -4.18629,10.401 -0.6831,0.057 -1.03189,-0.0379 -1.13591,-0.30893 z m 13.23528,-0.77783 c -0.086,-0.22416 0.0337,-1.10188 0.26616,-1.95049 0.50841,-1.85638 0.95122,-4.29949 1.86217,-10.27416 0.37718,-2.47386 0.87424,-5.56948 1.10457,-6.879175 0.23032,-1.30969 0.57218,-3.68701 0.75967,-5.28294 l 0.34089,-2.90169 1.14854,-1.01719 c 1.94513,-1.72268 4.68709,-2.71695 4.35712,-1.57995 -0.34729,1.19667 -0.66183,2.6962 -0.81862,3.9026 -0.0946,0.72761 -0.45512,2.57307 -0.80122,4.10104 -0.34611,1.52797 -0.88285,4.147355 -1.19275,5.820845 -0.30991,1.67349 -0.85865,4.47146 -1.21942,6.21771 -0.36078,1.74625 -0.82835,4.36562 -1.03905,5.82083 -0.56939,3.93249 -0.48288,3.74095 -1.77141,3.92181 -0.62074,0.0871 -1.51373,0.23714 -1.98443,0.33337 -0.64154,0.13115 -0.89498,0.0729 -1.01222,-0.23261 z m 2.69687,-1.40308 c 0.44893,-0.12047 0.60111,-0.4294 0.74468,-1.51167 0.0992,-0.74814 0.28634,-1.83923 0.41576,-2.42466 0.3967,-1.79435 0.80282,-3.84883 1.3349,-6.75295 0.93496,-5.10305 1.5481,-8.194175 1.84143,-9.283545 0.21927,-0.81431 1.31136,-6.8928 1.31594,-7.32442 4.1e-4,-0.0393 -0.62432,0.28521 -1.38831,0.72119 -1.46787,0.83765 -1.71541,1.27005 -1.75956,3.0735 -0.0145,0.59255 -0.32811,2.85474 -0.69688,5.02709 -0.7231,4.259515 -0.96085,5.803135 -1.58635,10.299725 -0.35221,2.53195 -0.91354,5.79897 -1.3297,7.73906 -0.13367,0.62319 0.0878,0.71047 1.10809,0.43668 z m 14.06309,-0.14008 c -0.26113,-0.16248 -0.063,-3.47673 0.24285,-4.06305 0.077,-0.14765 -0.32023,0.23595 -0.88278,0.85243 -1.44288,1.58121 -2.97786,2.71558 -3.67461,2.71558 -0.34646,0 -0.78037,-0.28346 -1.03965,-0.67916 -0.38709,-0.59077 -0.42216,-1.16758 -0.26947,-4.43177 0.1782,-3.80959 0.61695,-7.03747 1.24458,-9.15646 0.3794,-1.28091 1.23794,-1.8036 2.45907,-1.49712 0.94997,0.23843 1.0198,1.06889 0.30219,3.59368 -0.81693,2.87418 -1.01673,3.96875 -0.72447,3.96875 0.51691,0 1.87524,-3.99119 2.23546,-6.56848 0.20357,-1.45645 0.44486,-2.769015 0.53619,-2.916805 0.22463,-0.36346 2.84551,-0.88803 3.92009,-0.78461 l 0.86697,0.0834 -0.0423,2.248965 c -0.11534,6.12834 -0.68376,14.98834 -1.01199,15.77389 -0.34199,0.8185 -0.41502,0.85072 -2.12441,0.9374 -0.97363,0.0494 -1.89059,0.0149 -2.03769,-0.0767 z m 3.37236,-2.39466 c 0.10276,-0.60823 0.22064,-3.43596 0.26196,-6.28385 0.0413,-2.84789 0.19978,-5.94329 0.35214,-6.87866 0.31461,-1.931485 0.25526,-2.135785 -0.62052,-2.135785 -1.61236,0 -1.89578,0.33953 -2.35891,2.825995 -0.41023,2.20245 -2.42842,7.7541 -3.04184,8.36752 -0.20013,0.20014 -0.47609,0.10042 -0.94735,-0.3423 -0.82748,-0.77738 -0.88373,-2.31275 -0.16974,-4.6335 0.76374,-2.4825 0.87525,-3.3073 0.44714,-3.3073 -0.77098,0 -1.47748,3.22782 -1.6976,7.75591 -0.21801,4.48455 -0.1726,5.20868 0.3266,5.20868 0.4502,0 2.40796,-2.04316 3.54935,-3.70417 1.52433,-2.21828 1.78187,-2.012 1.73424,1.38906 l -0.0398,2.84427 h 1.00877 c 0.97793,0 1.01448,-0.0338 1.1956,-1.10587 z m 4.92776,0.01 c -0.77727,-0.22378 -0.86455,-0.33648 -0.71671,-0.92549 0.0926,-0.36887 0.53198,-1.31503 0.97644,-2.10258 0.84414,-1.49573 1.65574,-1.86566 2.3247,-1.05962 0.16994,0.20476 1.00762,0.45338 1.86151,0.55248 2.51559,0.29197 3.97973,-0.72065 3.97973,-2.75244 0,-0.63628 -0.22103,-0.86173 -1.52135,-1.55175 -0.83675,-0.44402 -2.11667,-0.89199 -2.84427,-0.99548 -1.85851,-0.26434 -2.99343,-0.78369 -3.33083,-1.52422 -0.24157,-0.53018 -0.15818,-0.89262 0.50538,-2.19656 1.73756,-3.414395 5.06155,-5.334495 8.16153,-4.714505 0.51611,0.10323 0.88441,0.4083 1.11105,0.92033 0.53469,1.20794 0.19711,1.720585 -1.49502,2.270335 -0.86128,0.27982 -1.51253,0.64685 -1.51253,0.85244 0,0.19857 0.80582,0.79388 1.7907,1.32291 2.31321,1.24254 3.547,2.43707 3.91015,3.78573 0.31368,1.16491 0.13053,2.85997 -0.42674,3.94947 -0.60182,1.17662 -2.79549,3.14013 -3.79991,3.40122 -4.15416,1.07985 -7.03393,1.32622 -8.97383,0.76773 z m 5.63477,-1.30796 c 1.31671,-0.30369 2.65272,-0.6013 2.9689,-0.66137 0.65882,-0.12517 2.05827,-1.44675 2.77294,-2.61865 0.59117,-0.9694 0.63418,-2.79185 0.0907,-3.84285 -0.381,-0.73677 -2.91854,-2.43009 -5.22444,-3.4863 -1.2385,-0.5673 -1.27385,-1.16827 -0.13229,-2.24878 1.03151,-0.976345 1.82002,-1.406575 2.57791,-1.406575 0.3092,0 0.48859,-0.11906 0.39866,-0.26458 -0.30881,-0.49966 -1.73683,-0.26361 -3.38099,0.55888 -2.08006,1.040555 -2.48376,1.403015 -3.25378,2.921445 -0.77362,1.52554 -0.65096,1.66051 2.12438,2.33747 3.5244,0.85968 5.4321,2.18773 5.43544,3.7839 0.001,0.72639 -0.91816,2.35068 -1.81134,3.19908 l -0.80245,0.76223 -2.9259,-0.12055 c -2.81418,-0.11595 -2.94091,-0.0976 -3.31918,0.47969 -0.38243,0.58365 -0.36232,0.60718 0.72755,0.85134 0.61647,0.13811 1.17463,0.26385 1.24036,0.27944 0.0657,0.0156 1.19683,-0.22014 2.51354,-0.52382 z m 12.10057,1.11537 c -0.27874,-0.17517 -0.21521,-0.63273 0.32057,-2.30907 0.62557,-1.9573 1.48226,-7.32916 1.48226,-9.29456 0,-0.82185 -0.0449,-0.86505 -0.7276,-0.69985 -0.40019,0.0968 -0.96573,0.2577 -1.25677,0.35747 -0.48972,0.16787 -1.46076,0.27116 -3.43232,0.36511 -0.96004,0.0457 -1.1549,-0.54054 -0.58647,-1.76457 0.21551,-0.46409 0.66119,-1.498645 0.99039,-2.299005 0.92995,-2.26095 0.97178,-2.28461 3.12162,-1.76571 2.95457,0.71312 2.6849,1.2267 2.6849,-5.11346 0,-3.52777 -0.0966,-5.55625 -0.26458,-5.55625 -0.42428,0 -0.30528,-0.67532 0.19843,-1.12608 0.40196,-0.35971 3.02693,-0.62786 4.7943,-0.48975 0.28406,0.0222 0.32755,0.38631 0.20094,1.68198 -0.0889,0.9095 -0.26873,2.9038 -0.39967,4.43177 -0.13094,1.52797 -0.30073,2.95672 -0.37731,3.175 -0.0766,0.21828 -0.21048,0.90523 -0.29755,1.52656 l -0.15831,1.12968 0.95365,-0.39846 c 0.52451,-0.21915 1.31823,-0.70523 1.76382,-1.08017 0.66639,-0.56073 0.8702,-0.62006 1.14849,-0.33435 0.2646,0.27166 0.28096,0.86634 0.0751,2.72862 -0.14478,1.30968 -0.39282,2.717815 -0.5512,3.129175 -0.28107,0.73 -0.32981,0.74586 -2.03339,0.66146 l -1.74542,-0.0865 v 2.77813 c 0,1.52797 0.0595,4.26576 0.13229,6.08398 l 0.1323,3.30586 -1.32292,0.16726 c -1.1314,0.14305 -2.272,0.39438 -4.10104,0.90365 -0.21828,0.0608 -0.55331,0.0122 -0.7445,-0.10795 z m 2.49095,-1.59968 c 0.4219,-0.13349 1.09451,-0.31435 1.49469,-0.40191 0.72314,-0.15823 0.72754,-0.17259 0.71615,-2.33698 -0.006,-1.19778 -0.11481,-3.78155 -0.24114,-5.74172 -0.21631,-3.3563 -0.19848,-3.60778 0.30602,-4.31628 0.29464,-0.413795 0.68559,-0.694825 0.86877,-0.624535 0.18319,0.0703 0.88407,0.21044 1.55752,0.31143 l 1.22445,0.18362 v -1.12145 c 0,-1.21527 -0.007,-1.21738 -2.02606,-0.64034 -0.72056,0.20591 -1.6781,-0.69059 -1.6781,-1.57112 0,-0.34485 0.22256,-1.32711 0.49459,-2.18281 0.27202,-0.85571 0.5809,-2.62739 0.68639,-3.93708 0.1055,-1.30968 0.24214,-2.78969 0.30366,-3.2889 0.12154,-0.98631 -0.17726,-1.33063 -1.16046,-1.33725 -0.40758,-0.003 -0.70135,0.23082 -0.91007,0.72355 -0.33624,0.79381 -0.38923,7.01408 -0.0851,9.99397 0.14973,1.46721 0.10332,1.84704 -0.27702,2.26732 -0.57044,0.63033 -0.88983,0.62689 -2.99264,-0.0322 l -1.69172,-0.53026 -0.42414,0.59982 c -0.50098,0.70849 -1.3518,2.256845 -1.3518,2.460075 0,0.39038 2.96565,-0.3041 4.30996,-1.00928 1.11441,-0.584595 1.61116,-0.724225 1.82297,-0.512415 0.34868,0.348685 -0.60276,7.548865 -1.39681,10.570655 -0.4787,1.82172 -0.61378,2.71684 -0.40997,2.71684 0.051,0 0.438,-0.10922 0.85989,-0.24271 z m 8.799909,3.72263 c 0,-0.19217 0.11004,-0.93119 0.24454,-1.64228 0.24579,-1.29949 0.90758,-6.53743 1.19966,-9.49497 0.0862,-0.87312 0.26737,-2.24234 0.40255,-3.04271 0.13517,-0.80036 0.37931,-2.407713 0.54253,-3.571873 0.46462,-3.31394 0.46176,-3.30729 1.42294,-3.30729 0.46445,0 0.95756,-0.10332 1.0958,-0.2296 0.13825,-0.12628 0.62754,-0.29974 1.08732,-0.38547 1.01525,-0.18931 1.20088,0.14695 0.86952,1.57515 -0.44143,1.90259 -0.36656,2.12223 0.6817,1.99986 1.19641,-0.13968 2.34307,0.33928 2.7838,1.16279 0.27674,0.517103 0.28658,1.062293 0.0486,2.694533 -0.16406,1.12546 -0.43881,3.48308 -0.61056,5.23918 -0.17175,1.75609 -0.44562,3.37459 -0.60859,3.59667 -0.40132,0.54685 -2.80094,0.81757 -2.98543,0.3368 -0.0747,-0.19455 0.16428,-1.57992 0.53096,-3.07859 0.36669,-1.49868 0.71751,-3.30066 0.7796,-4.0044 0.1021,-1.1572 0.0503,-1.30808 -0.54213,-1.57799 -1.13216,-0.51585 -1.83951,0.77709 -2.57655,4.70961 -0.26711,1.42514 -0.2863,2.63627 -0.0832,5.25391 0.18713,2.41238 0.18071,3.48502 -0.0221,3.68783 -0.44318,0.44317 -4.26098,0.51382 -4.26098,0.0788 z m 2.9297,-5.31939 c 0.14833,-4.13957 0.44583,-5.86098 1.45995,-8.4476 0.22474,-0.57324 0.60893,-1.19434 0.85376,-1.38022 0.51426,-0.39046 2.01963,-0.20713 2.81911,0.34334 0.79735,0.54899 0.93331,0.4479 0.93331,-0.69396 0,-0.9125 -0.0916,-1.07628 -0.68498,-1.225213 -0.37673,-0.0946 -1.15422,-0.0171 -1.72773,0.172223 -1.37553,0.45396 -1.63218,0.16553 -1.51594,-1.703673 0.0784,-1.25982 0.0241,-1.48238 -0.36152,-1.48208 -0.66282,5.3e-4 -1.00149,0.83142 -1.00149,2.45703 0,0.788223 -0.11445,1.778313 -0.25433,2.200213 -0.13988,0.42189 -0.49781,2.61255 -0.7954,4.86812 -0.29759,2.25558 -0.67834,5.06714 -0.84611,6.24791 -0.33344,2.34681 -0.20501,3.09887 0.50597,2.96294 0.41127,-0.0786 0.481,-0.56804 0.6154,-4.31903 z m 5.25379,-2.06316 c -0.0157,-0.71168 -0.0543,-0.76117 -0.24599,-0.31511 -0.31733,0.73847 -0.31733,1.51903 0,1.32291 0.14552,-0.0899 0.25622,-0.54345 0.24599,-1.0078 z m 14.921112,4.12516 c -1.18782,-0.14878 -1.50205,-0.62065 -1.18293,-1.77639 0.24743,-0.89613 0.0175,-1.28732 -0.37926,-0.64531 -0.10156,0.16432 -1.08208,0.71341 -2.17894,1.22019 -1.65921,0.7666 -2.18769,0.8949 -3.1454,0.76364 -2.46389,-0.33772 -3.183871,-2.04724 -2.573471,-6.11047 0.596261,-3.96914 1.499981,-5.88011 3.584661,-7.579993 1.72885,-1.40974 2.3035,-1.63768 4.19629,-1.66454 1.70167,-0.0241 1.7267,-0.0351 1.81319,-0.79328 0.0955,-0.83701 0.82389,-1.5744 1.95901,-1.98312 0.89148,-0.32099 1.63871,0.27457 1.42567,1.1363 -0.28092,1.13632 -0.63314,5.136293 -0.67812,7.701033 -0.0676,3.85254 -0.44778,8.35627 -0.77621,9.19427 -0.28758,0.73378 -0.35621,0.75165 -2.06449,0.53767 z m 0.85045,-1.67874 c -0.49789,0 0.91778,-9.06963 0.87471,-11.52789 l -0.0377,-2.151773 -0.58358,0.67846 c -0.54021,0.628034 -0.64445,0.65324 -1.40263,0.33919 -0.54812,-0.22704 -1.27573,-0.27646 -2.19956,-0.1494 -1.14125,0.15696 -1.60209,0.39713 -2.65901,1.385773 -0.70318,0.65774 -1.27851,1.31005 -1.27851,1.44957 0,0.13952 -0.23623,0.58544 -0.52496,0.99091 -0.71735,1.00743 -1.3185,3.72206 -1.32322,5.9753 -0.003,1.51798 0.0972,1.97692 0.53557,2.44739 1.10061,1.18137 3.49799,0.49523 5.82692,-1.66767 2.64749,-2.45878 2.99786,-2.19757 2.21509,1.65142 -0.17076,0.83963 1.28494,0.57872 0.55689,0.57872 z m -7.00677,-3.20128 c -0.56414,-0.52556 -0.6017,-0.72436 -0.46253,-2.44739 0.22637,-2.8026 0.7738,-3.91465 2.48708,-5.05221 1.14685,-0.76146 1.59959,-0.92242 2.21457,-0.78735 0.48175,0.10581 0.77302,0.0622 0.77302,-0.11582 0,-0.157093 0.21866,-0.285613 0.48591,-0.285613 0.44061,0 0.48272,0.24051 0.45168,2.579693 -0.0387,2.91336 -0.30198,3.62174 -2.05207,5.52036 -0.93601,1.01546 -1.20783,1.16037 -2.17662,1.16037 -0.76897,0 -1.29454,-0.17469 -1.72104,-0.57204 z m 3.11701,-1.64119 c 0.88613,-0.80945 1.36596,-2.13454 1.36596,-3.77221 0,-1.32935 -0.0421,-1.4229 -0.64116,-1.4229 -1.47542,0 -3.06301,2.46592 -3.06301,4.75761 0,1.40332 1.06314,1.60224 2.33821,0.4375 z m 11.67411,6.16217 c -0.30828,-0.57603 -0.23414,-1.35959 0.44877,-4.74269 0.53808,-2.66567 1.13061,-6.7942 1.14094,-7.94973 l 0.008,-0.938273 -2.47379,0.10819 c -2.15541,0.0943 -2.49624,0.0497 -2.6482,-0.34629 -0.20379,-0.53107 1.0794,-3.5643 1.5201,-3.59326 0.16203,-0.0106 1.1578,-0.003 2.21283,0.0173 1.05503,0.0202 1.91848,-0.0604 1.9188,-0.17907 0.009,-3.5087 0.30942,-14.42634 0.41016,-14.91782 0.13881,-0.67722 0.14702,-0.679109 2.8408,-0.66146 l 2.70159,0.0177 -0.0352,0.92604 c -0.0193,0.50932 -0.27634,3.18823 -0.5711,5.95312 -0.29476,2.7649 -0.61802,5.96593 -0.71836,7.11341 l -0.18243,2.08632 0.75353,-0.1894 c 0.41444,-0.10417 1.21815,-0.253584 1.78602,-0.33202 l 1.03249,-0.14261 -0.17424,1.27121 c -0.21315,1.55508 -0.79204,2.49622 -1.53541,2.49622 -0.30718,0 -1.01684,0.13732 -1.57702,0.30515 -1.24668,0.37352 -1.21643,0.22237 -1.40319,7.009403 -0.0812,2.95184 -0.26671,5.345 -0.4445,5.73522 -0.20916,0.45904 -0.70542,0.80057 -1.57799,1.08597 -1.82072,0.59553 -3.06913,0.5473 -3.43302,-0.13263 z m 3.62095,-1.34804 c 0,0.63511 0.61271,-1.67064 0.66088,-7.43193 0.0301,-3.60025 0.14542,-5.571263 0.33474,-5.721143 0.15885,-0.12575 1.04886,-0.41839 1.9778,-0.65031 0.92894,-0.23191 1.73136,-0.46404 1.78316,-0.51584 0.0518,-0.0518 -0.4814,-0.0855 -1.18489,-0.0749 -0.75872,0.0114 -1.46873,-0.13801 -1.7453,-0.36734 -0.49648,-0.41168 -0.49993,-0.2554 0.10827,-4.90506 0.44293,-3.38609 1.09471,-10.77869 0.96202,-10.91137 -0.1678,-0.1678 -2.07022,0.17105 -2.51962,0.44879 -0.29671,0.18338 -0.3773,1.60652 -0.41892,7.39791 -0.0618,8.59926 0.0795,8.21039 -2.97751,8.19443 -1.88325,-0.01 -2.42468,0.18763 -2.43901,0.88951 -0.007,0.3531 2.01962,0.21029 3.03466,-0.21382 0.90949,-0.38001 1.02607,-0.37659 1.49042,0.0436 0.613,0.55476 0.51776,2.03139 -0.48457,7.512383 -0.871,4.7629 -1.02142,6.35721 -0.62303,6.60343 0.36883,0.22794 2.0409,-0.85809 2.0409,-0.29836 z m 7.89903,0.87427 -0.79375,-0.18229 0.0743,-2.37405 c 0.0408,-1.30572 0.20107,-3.50514 0.35606,-4.88758 0.15499,-1.38245 0.37299,-3.70417 0.48444,-5.159383 0.11146,-1.45521 0.28689,-2.84246 0.38985,-3.08278 0.23567,-0.55006 1.07278,-0.784 1.45121,-0.40557 0.20429,0.20429 0.28689,0.20472 0.28689,0.001 0,-0.41845 1.41239,-0.93292 2.28667,-0.83294 0.65561,0.075 0.75061,0.19191 0.71515,0.88022 -0.0959,1.8608 -0.65223,6.509173 -1.01338,8.466673 -0.21479,1.16416 -0.39287,2.66559 -0.39573,3.3365 -0.009,2.11031 -0.31942,3.6829 -0.77511,3.92678 -0.66995,0.35854 -2.19172,0.51383 -3.06655,0.31293 z m 2.55657,-4.00434 c 0.0964,-1.38245 0.35433,-3.28745 0.57311,-4.23333 0.21878,-0.94589 0.43754,-2.90481 0.48613,-4.353163 l 0.0884,-2.63337 -0.86437,-0.1784 c -0.4754,-0.0981 -0.92808,-0.0753 -1.00596,0.0507 -0.0779,0.12601 -0.26561,1.5699 -0.41719,3.208643 -1.08299,11.70858 -1.09411,10.85279 0.13928,10.73279 l 0.82533,-0.0803 z m 7.94527,3.48071 c -1.85377,-0.49412 -3.1403,-2.72136 -3.1403,-5.43648 0,-1.99625 0.93105,-5.95196 1.80829,-7.68282 0.82237,-1.6226 3.03012,-3.97498 3.94642,-4.20496 0.63543,-0.15948 1.48654,0.0762 4.96092,1.37368 1.01865,0.38041 2.03467,0.74917 2.25784,0.81947 0.22316,0.0703 0.69941,0.68196 1.05833,1.35923 0.56127,1.05911 0.64323,1.52891 0.58578,3.35756 -0.0599,1.9061 -0.18311,2.35709 -1.19062,4.35763 -1.24952,2.48107 -3.51421,4.94615 -5.36894,5.844 -1.17359,0.56813 -3.24771,0.65783 -4.91772,0.21269 z m 5.34733,-2.01359 c 1.68525,-1.17671 3.93284,-4.06812 4.59615,-5.91274 0.52208,-1.45185 0.42126,-3.11708 -0.28855,-4.76592 -0.30718,-0.71358 -0.70053,-1.08202 -1.51198,-1.41623 -0.60323,-0.24845 -1.30779,-0.56123 -1.56568,-0.69506 -0.2579,-0.13384 -1.11493,-0.48505 -1.90453,-0.78047 -1.29201,-0.48341 -1.50978,-0.49879 -2.17693,-0.15373 -0.86015,0.44488 -2.16769,2.01682 -2.7853,3.34852 -0.72997,1.57397 -1.52789,5.05067 -1.52789,6.65734 0,3.13674 1.43491,4.67617 4.38658,4.70611 1.13803,0.0115 1.56357,-0.13977 2.77813,-0.98782 z m -3.90814,-1.9115 c -2.21136,-0.89074 -1.86187,-5.56831 0.59388,-7.94852 0.85985,-0.8334 1.01094,-0.8795 3.03785,-0.92685 2.85618,-0.0667 3.31126,0.2732 3.26567,2.4394 -0.067,3.18571 -0.99377,4.88574 -3.30047,6.05464 -1.30886,0.66325 -2.56612,0.79654 -3.59693,0.38133 z m 3.77895,-1.93346 c 1.50297,-0.97701 2.5689,-4.49334 1.64281,-5.41942 -0.17462,-0.17463 -0.93939,-0.3175 -1.69949,-0.3175 -1.0949,0 -1.54835,0.13999 -2.18286,0.67389 -1.10028,0.92543 -1.62098,2.08186 -1.62098,3.59969 0,2.35354 1.57331,2.94974 3.86052,1.46294 z m 7.43886,4.93121 c -0.13974,0 -0.0242,-0.87193 0.10764,-1.6723 0.13181,-0.80036 0.34698,-2.16958 0.47818,-3.0427 0.13119,-0.87313 0.53827,-3.55204 0.90461,-5.95313 0.36635,-2.40109 0.74561,-5.08 0.8428,-5.95313 0.20732,-1.8624 0.4581,-2.24895 1.45899,-2.24895 0.40662,0 0.77899,-0.0893 0.8275,-0.19844 0.17901,-0.40278 2.91822,-1.91738 3.17766,-1.75704 0.16032,0.0991 0.19847,0.63315 0.0947,1.3253 -0.16368,1.09153 0.10996,1.55827 0.52237,0.89098 0.31212,-0.50503 2.27612,-1.34543 2.77454,-1.18724 0.80877,0.25669 2.07257,1.89213 2.39903,3.1045 0.37368,1.38776 0.15424,7.19587 -0.40754,10.78652 -0.21629,1.38245 -0.39539,3.01537 -0.398,3.62871 -0.006,1.30283 -0.27933,1.51406 -2.31955,1.78957 -0.76383,0.10315 -1.45546,0.29545 -1.53697,0.42734 -0.24907,0.403 -1.10831,0.26686 -1.28909,-0.20424 -0.0937,-0.24421 0.003,-1.04789 0.21548,-1.78593 0.84036,-2.92246 1.22122,-5.57123 1.22122,-8.49318 0,-2.78565 -0.0406,-3.03519 -0.49349,-3.03519 -0.60031,0 -1.78161,0.89478 -2.19087,1.65948 -0.34588,0.64629 -0.80753,5.55965 -0.855,9.09992 -0.0179,1.33376 -0.12591,2.51856 -0.24007,2.6329 -0.28505,0.2855 -4.97846,0.18625 -5.29411,0.18625 z m 3.51106,-1.40771 c 0.48607,0 0.42438,0.43682 1.06492,-7.54063 0.12853,-1.60073 0.24056,-2.92381 0.24896,-2.94018 0.28103,-0.5478 1.85596,-2.21013 2.52402,-2.66409 1.11888,-0.7603 1.76065,-0.77533 2.41118,-0.0565 0.44458,0.4913 0.50325,0.98275 0.49746,4.16719 -0.005,2.67203 -0.12518,3.98366 -0.46302,5.04729 -0.25105,0.7904 -0.45646,1.96614 -0.45646,2.61276 v 1.17568 l 0.8406,-0.16812 c 1.06411,-0.21282 1.02815,-0.16614 1.17663,-1.52751 0.0689,-0.63175 0.23665,-1.56353 0.37276,-2.07063 0.13611,-0.50709 0.39002,-2.6543 0.56423,-4.77158 0.34127,-4.14758 0.1399,-6.2086 -0.73745,-7.54759 -0.58382,-0.89102 -1.23519,-0.73446 -3.41464,0.82077 -2.30679,1.64609 -3.1083,1.51353 -2.33616,-0.38638 0.46638,-1.14758 0.31797,-1.27905 -0.65877,-0.58355 -0.43102,0.30691 -0.91413,0.55803 -1.07356,0.55803 -0.15944,0 -0.28989,0.11402 -0.28989,0.25338 0,0.23417 -0.77542,4.94606 -1.69996,10.32995 -0.21241,1.23693 -0.46633,3.01073 -0.56427,3.94178 l -0.17807,1.69283 0.85735,-0.17147 c 0.47154,-0.0943 1.0629,-0.17147 1.31414,-0.17147 z M 23.578069,98.135495 c -0.927,-0.50298 -1.13951,-1.37498 -0.63143,-2.59097 0.44016,-1.05346 0.62896,-1.11715 1.92378,-0.64893 1.58711,0.57391 1.70183,2.66874 0.18401,3.3603 -0.76216,0.34726 -0.58834,0.36144 -1.47636,-0.1204 z m 1.3831,-1.3025 c 0.26534,-0.31972 0.24321,-0.42581 -0.11768,-0.5643 -0.5213,-0.20004 -1.07713,0.25438 -0.82001,0.6704 0.24415,0.39506 0.55054,0.36039 0.93769,-0.1061 z M 132.51183,92.325367 c 1.23104,0 -0.94265,-2.03626 0.0608,-3.11044 0.90288,-0.96653 1.55565,-0.89147 2.42053,0.27833 0.72554,0.98136 0.76299,1.95298 0.0995,2.5833 -0.81323,0.77263 -3.58115,0.24881 -2.58085,0.24881 z m 1.64035,-1.11119 c 0.53364,0 -0.0325,-1.12858 -0.45205,-0.8693 -0.34745,0.21473 -0.39842,1.20891 -0.062,1.20891 0.1277,0 0.2713,-0.33961 0.51403,-0.33961 z"
       style="fill:#000000"
       id="path1-3"
       sodipodi:nodetypes="sssssscssssssssssssscscsssssssscsssssssssscsscsssscscssscsscsssscsssccssssssssscssssssssssscccsccccsssssssssssccsccsssssssssssssssssssssssssssssscscsssssscsscscssssssscssscsssssccsccsscccscsssscsssssscsssscsssssscccscsssssssscsscsscscsccssssscccssssscssscsssssssscssscsssscssssssccsssssssssscsssssssscscccscccssccsscsscssssssccssssscsssssccscsssscccsssssscsssccsscccssscssssssssssssssssssssscsssscsscsscsccssssssssssssscssscssssssscscsscsscsssssssssssscsccsssssssssssscsssssss"
       inkscape:export-filename="illus.png"
       inkscape:export-xdpi="300"
       inkscape:export-ydpi="300" /></g></svg>
